<svg xmlns="http://www.w3.org/2000/svg" xmlns:xlink="http://www.w3.org/1999/xlink" width="954" height="1167" viewBox="0 0 954 1167">
  <metadata><?xpacket begin="﻿" id="W5M0MpCehiHzreSzNTczkc9d"?>
<x:xmpmeta xmlns:x="adobe:ns:meta/" x:xmptk="Adobe XMP Core 5.6-c142 79.160924, 2017/07/13-01:06:39        ">
   <rdf:RDF xmlns:rdf="http://www.w3.org/1999/02/22-rdf-syntax-ns#">
      <rdf:Description rdf:about=""/>
   </rdf:RDF>
</x:xmpmeta>
                                                                                                    
                                                                                                    
                                                                                                    
                                                                                                    
                                                                                                    
                                                                                                    
                                                                                                    
                                                                                                    
                                                                                                    
                                                                                                    
                                                                                                    
                                                                                                    
                                                                                                    
                                                                                                    
                                                                                                    
                                                                                                    
                                                                                                    
                                                                                                    
                                                                                                    
                                                                                                    
                           
<?xpacket end="w"?></metadata>
<defs>
    <style>
      .cls-1 {
        fill: #eee;
        fill-rule: evenodd;
        filter: url(#filter);
      }
    </style>
    <filter id="filter" x="-299" y="-430" width="1253" height="1597" filterUnits="userSpaceOnUse">
      <feOffset result="offset" dy="7" in="SourceAlpha"/>
      <feGaussianBlur result="blur" stdDeviation="4"/>
      <feFlood result="flood" flood-color="#575b7c" flood-opacity="0.1"/>
      <feComposite result="composite" operator="in" in2="blur"/>
      <feBlend result="blend" in="SourceGraphic"/>
    </filter>
  </defs>
  <path class="cls-1" d="M56,873c0.553,17.882,25.394,152.99,102,209,96.015,70.2,249.088,61.65,261,61,21.416-1.17,46-28,46-28s80.21-17.15,54-121c0.077-53.671-17.9-103.433,5.461-149.087,13.963-11.32,18.561-34.142,18.561-34.142s111.349,10.111,214.568-15.587c37.431,4.217,134.883,21.659,152.944-48.987,8.586-.025,15.386-8.377,11.466-23.2,4.923-6.789,23.034-21.2,11.55-42.861-3.595-5.818-12.913-17.224-21.531-18.556-7.913-5.252-48.452-39.276-66.82-46.018-18.433-16.464-95.331-76.782-106.17-86.1s-93.144-94.5-113.6-101.686c-8.519-9.876-61.03-75.459-73.5-79.418,10.169-3.878,68.57-23.648,90.578-72.738,24.723-21.75,54.389-59.719,37.865-138.8-2.745-7.731-8.377-11.6-8.909,5.195s-17.151,66.736-21.531,76.45c-3.383-16.542-10.4-79.666-50.487-80.161-10.8-.877-8.333,7.337-0.742,10.392s19.859,11.616,20.788,35.627,6.046,62.592-4.454,68.285S524.7,289.7,489.566,292.7c-34.308-7.9-94.291-27.463-94.291-27.463s81.952-57.315,72.017-101.685c-3.388-.938-5.654,13.62-15.591,20.04s-86.778,60.9-98.746,62.347c-9.575-11.451-33.64-39.446-31.182-55.667,6.065-5.109,25.319-28.814,40.834-66.058C380.875,80.359,394.286,21.22,379.684,2.485c-9.892,12.15-19.039,45.182-23.759,57.894S326.5,141.625,304.7,152.415c-25.946,18.853-70.911,8.311-89.836-3.711,2.249-26.557,12.374-96.033,14.849-113.561S244.554-44.912,245.3-73.965c3.981-26.53,11.713-110.97,13.364-118.014,3.256-9.181,11.475-44.01,7.425-65.316-1.046-20.36-.109-37.7-7.425-37.111s-6.318,30.682-8.909,42.307-17.362,61.012-25.243,91.294S205.4,20.311,169.571,20.3c-34.294-10.758-39.987-40.853-42.32-60.862,4.268-30.926,5.2-68.285,5.2-68.285s9.764-166.818,11.137-189.269c5.8-28.478,47.517-112.818,47.517-112.818s2.9-15.812-11.137-9.649c-3.96,6.154-7.425,12.618-7.425,12.618s-7.527-14.084-18.561-2.969c-3.4,9.743-7.223,14.941-12.621,23.751s-22.209,49.534-32.668,61.605-27.867,35.391-36.38,35.627-34.023-3.234-42.32-20.04-11.879-24.494-11.879-24.494S7.9-338.649,9.2-329.291s1.182,19.325,11.137,25.236c-16.941-7.8-47.9-36.606-51.971-34.885S-54.952-304.063,38.9-263.233c6.153,4.948,27.985,35.66,23.758,67.543C53.367-167.006,45.81-164,43.354-158.579S40-136.98,29.248-131.116s-30.694,17.565-50.487-4.454-23.974-28.719-25.243-37.853-16.959-102.409-6.682-135.828,36.126-69.617,28.213-80.161c-12.655,2.373-27.649,26.951-33.41,34.143s-15.59,15.452-41.577,97.974c-9.445,33.315-20.993,74.685-43.062,92.778C-166.934-154-204.665-137.534-223.927-137.8s-45.289-13.36-45.289-13.36l-8.167,11.875,6.682,8.907s36.442,21.7,65.335,23.009c29.439,4.373,53.577,20.323,61.623,40.08s8.91,17.071,8.91,17.071S-98.849,11.845-166.016,34.4c-56.425,12.222-57.168-1.485-57.168-1.485s-36.881-92.954-40.835-89.809c-11.689,9.911,6.544,71.818,6.682,96.49-0.532,39.073-31.738,51.6-25.986,77.934,4.575,9.76,16.965-16.739,42.32-14.844s53.713,2.718,115.079-8.165c73.9,4.643,167.618,5.789,199.719,31.174s53.806,40.928,60.881,44.533c7.678,13.977,7.156,69.194,146.262,121.725A248.751,248.751,0,0,1,318.8,329.807L250.5,314.22s-62.93-47.791-92.806-25.977c-26.237-13.748-64.926-35.539-72.018-5.2,12.136,38.8,16.022,76.517,60.881,122.467s69.472,80.073,82.411,84.614C215.761,516.3,143.548,718.405,115.372,772.175S54.754,832.705,56,873Z"/>
</svg>
