<?xml version="1.0" standalone="no"?>
<!DOCTYPE svg PUBLIC "-//W3C//DTD SVG 20010904//EN"
 "http://www.w3.org/TR/2001/REC-SVG-20010904/DTD/svg10.dtd">
<svg version="1.0" xmlns="http://www.w3.org/2000/svg"
 width="1000.000000pt" height="1000.000000pt" viewBox="0 0 1000.000000 1000.000000"
 preserveAspectRatio="xMidYMid meet">
<metadata>
Created by potrace 1.11, written by Peter Selinger 2001-2013
</metadata>
<g transform="translate(0.000000,1000.000000) scale(0.100000,-0.100000)"
fill="#000000" stroke="none">
<path d="M3096 8804 c-236 -36 -456 -177 -619 -398 -50 -67 -117 -172 -117
-182 0 -3 -20 -39 -43 -82 -24 -42 -95 -176 -157 -297 -179 -349 -258 -487
-360 -630 -62 -86 -177 -201 -252 -253 -94 -65 -262 -136 -346 -147 -20 -3
-48 -7 -62 -10 -14 -3 -61 -6 -105 -6 l-81 0 -32 -62 c-18 -34 -79 -145 -137
-247 -57 -101 -101 -188 -99 -192 3 -4 15 -8 28 -8 33 0 146 -40 191 -68 111
-69 165 -181 159 -333 -5 -142 -81 -364 -239 -704 -18 -38 -44 -95 -58 -125
-14 -30 -78 -163 -142 -295 -323 -662 -490 -1045 -555 -1274 -37 -129 -36
-126 -58 -276 -4 -27 -6 -111 -6 -185 2 -194 39 -321 130 -440 79 -105 177
-168 346 -224 121 -40 403 -92 536 -98 l54 -3 45 110 c24 61 46 115 47 120 2
6 7 19 11 30 36 87 218 553 222 566 4 15 -36 26 -175 44 -24 4 -78 15 -119 26
-219 56 -302 138 -305 305 -2 72 7 168 17 184 2 4 7 21 10 39 11 61 212 550
360 875 298 655 418 988 460 1276 37 251 -57 489 -247 630 l-38 28 123 41
c371 127 599 298 819 616 72 104 231 405 328 620 300 667 343 708 726 700
l161 -3 62 160 c34 88 61 162 59 163 -7 7 -162 17 -303 19 -89 2 -186 -2 -239
-10z"/>
<path d="M5617 8635 c-1 -2 -27 -5 -59 -9 -99 -10 -204 -73 -222 -131 -5 -19
-180 -846 -190 -901 -4 -22 -24 -117 -31 -144 -6 -25 -87 -406 -102 -480 -3
-14 -6 -29 -7 -35 -3 -9 -15 -70 -21 -105 -2 -8 -8 -35 -14 -60 -5 -25 -12
-56 -15 -70 -2 -14 -9 -45 -14 -70 -5 -25 -22 -103 -37 -175 -14 -71 -28 -137
-30 -145 -9 -42 -59 -282 -85 -405 -16 -77 -35 -171 -44 -210 -9 -38 -18 -81
-20 -95 -3 -14 -7 -34 -9 -45 -15 -63 -78 -365 -83 -390 -3 -17 -11 -58 -19
-93 -8 -34 -17 -76 -20 -92 -3 -16 -12 -58 -20 -92 -8 -35 -16 -76 -19 -93 -3
-16 -28 -138 -56 -270 -28 -132 -60 -283 -71 -336 -26 -126 -23 -113 -59 -279
-17 -80 -33 -156 -36 -170 -3 -14 -14 -68 -25 -120 -11 -52 -23 -108 -25 -125
-3 -16 -12 -55 -19 -85 -7 -30 -16 -68 -19 -85 -9 -56 -16 -90 -31 -155 -16
-75 -21 -99 -111 -520 -77 -361 -86 -450 -54 -553 61 -198 237 -329 444 -330
226 -2 432 149 495 363 9 30 36 196 56 340 3 25 8 56 10 70 2 14 6 43 10 65 3
23 7 50 9 60 2 11 7 45 11 75 4 30 9 64 11 75 3 18 32 200 39 250 1 11 5 40 9
65 4 25 9 59 10 75 2 17 7 46 10 65 3 19 8 51 10 70 5 38 45 300 51 340 3 14
7 43 10 65 3 22 12 81 20 130 8 50 17 110 20 135 3 25 8 56 10 70 2 14 6 45
10 70 3 25 8 56 10 70 6 33 11 65 30 195 21 145 26 175 30 205 2 14 9 54 14
90 6 36 13 83 16 105 2 22 6 49 9 60 2 11 7 45 11 75 4 30 9 62 10 70 8 44 16
99 20 128 8 64 22 159 30 202 2 14 7 45 10 70 7 53 14 95 20 130 2 14 7 45 10
70 3 25 10 70 15 100 5 30 12 75 15 100 7 55 16 118 21 145 2 11 7 40 9 65 3
25 12 86 20 135 8 50 17 108 20 130 3 22 7 51 10 65 2 14 9 61 15 105 16 109
20 136 25 165 3 14 7 43 10 65 11 81 16 111 25 165 5 30 11 75 14 100 4 25 8
56 10 70 7 39 34 220 41 270 3 25 8 56 10 70 2 14 14 88 25 165 12 77 23 151
25 165 2 14 7 45 10 70 3 25 15 104 26 175 11 72 22 146 25 165 2 19 6 49 9
65 3 17 7 48 10 70 3 22 10 64 15 94 15 83 12 130 -11 170 -22 39 -81 81 -142
101 -36 11 -144 29 -150 25z"/>
<path d="M7759 8444 c0 -5 0 -38 1 -74 6 -212 9 -262 13 -266 4 -4 31 -8 135
-19 285 -29 390 -92 450 -270 20 -60 24 -83 48 -285 2 -25 7 -61 9 -80 3 -19
7 -66 11 -105 3 -38 7 -83 9 -100 2 -16 6 -61 10 -100 3 -38 8 -83 10 -100 8
-63 17 -131 21 -155 2 -14 8 -52 14 -85 5 -33 14 -75 19 -93 5 -18 10 -36 11
-40 13 -88 71 -260 125 -373 73 -150 191 -292 355 -424 65 -52 195 -145 203
-145 3 0 31 -16 62 -35 l58 -35 -39 -16 c-141 -58 -211 -101 -297 -183 -158
-150 -237 -346 -272 -681 -5 -49 -6 -343 0 -430 1 -30 6 -95 9 -145 4 -49 9
-124 12 -165 3 -41 7 -93 9 -115 2 -22 7 -78 10 -125 3 -47 8 -101 10 -120 2
-19 7 -78 11 -130 3 -52 8 -102 9 -111 2 -9 6 -57 10 -105 3 -49 8 -100 10
-114 24 -155 24 -529 0 -675 -35 -215 -114 -300 -315 -341 -93 -18 -274 -15
-428 9 -46 7 -85 11 -86 8 -2 -4 -2 -40 -1 -81 2 -41 6 -156 9 -255 4 -99 9
-254 13 -345 3 -91 6 -189 6 -217 0 -29 4 -54 9 -54 4 -1 11 -2 16 -3 4 -1 33
-6 66 -10 32 -4 68 -9 80 -11 73 -13 161 -25 226 -31 41 -4 82 -8 90 -10 8 -1
35 -4 60 -6 25 -1 -90 -5 -255 -8 -216 -4 -133 -5 295 -6 348 0 499 3 365 6
-126 3 -210 7 -185 9 92 6 224 43 315 88 98 49 255 185 271 236 3 9 9 17 14
17 25 0 157 319 174 421 3 19 8 46 11 62 12 63 14 83 22 161 14 150 8 523 -11
671 -2 17 -7 59 -11 95 -3 36 -15 139 -26 230 -11 91 -22 185 -25 210 -3 25
-7 57 -10 72 -6 32 -10 61 -19 148 -3 36 -8 72 -10 80 -2 8 -7 35 -10 60 -3
25 -7 61 -10 80 -3 19 -7 53 -9 75 -3 22 -10 76 -15 120 -6 44 -13 109 -16
145 -4 36 -8 76 -10 90 -21 139 -25 517 -7 610 46 232 169 366 383 416 13 3
68 8 123 10 54 2 100 5 103 7 3 4 -2 37 -37 212 -5 28 -12 61 -14 75 -24 130
-60 299 -63 296 -7 -7 -172 34 -240 59 -212 80 -387 244 -486 456 -59 126
-123 402 -173 739 -19 133 -43 280 -60 370 -2 14 -7 41 -10 60 -8 51 -60 258
-78 308 -91 255 -295 436 -578 511 -127 34 -497 75 -499 55z"/>
<path d="M4455 8344 c-47 -11 -113 -39 -148 -62 -48 -32 -96 -115 -99 -172 0
-3 -6 -21 -14 -40 -7 -19 -92 -289 -189 -600 -97 -311 -198 -635 -225 -720
-72 -228 -101 -323 -105 -340 -4 -16 -128 -412 -171 -545 -14 -44 -28 -87 -30
-95 -2 -8 -21 -71 -43 -140 -21 -69 -107 -343 -190 -610 -83 -267 -156 -496
-161 -510 -5 -14 -25 -79 -45 -145 -20 -66 -50 -160 -65 -210 -31 -98 -217
-694 -228 -728 -4 -12 -7 -65 -6 -117 0 -84 3 -102 28 -150 95 -190 324 -264
552 -179 80 30 128 62 197 131 88 89 109 142 202 528 13 52 118 473 235 935
116 462 213 847 215 855 2 8 56 224 120 480 64 256 118 472 120 480 2 8 49
195 104 415 56 220 103 409 106 420 2 11 16 65 30 120 14 55 27 109 30 120 2
11 42 171 89 357 92 362 92 364 45 429 -13 19 -48 44 -87 62 -55 25 -79 31
-156 33 -50 2 -100 1 -111 -2z"/>
<path d="M6437 8150 c-104 -40 -143 -91 -152 -201 -3 -35 -7 -75 -10 -89 -2
-14 -6 -55 -10 -92 -3 -37 -7 -75 -9 -85 -2 -10 -7 -53 -10 -95 -4 -42 -8 -85
-10 -95 -2 -10 -7 -49 -10 -88 -4 -38 -11 -104 -16 -145 -5 -41 -12 -102 -15
-135 -3 -33 -7 -76 -10 -95 -2 -19 -7 -62 -10 -95 -3 -33 -8 -80 -11 -105 -2
-25 -6 -61 -9 -80 -2 -19 -7 -60 -10 -90 -13 -123 -16 -157 -20 -190 -2 -19
-7 -57 -10 -85 -3 -27 -8 -70 -11 -95 -3 -25 -7 -67 -9 -95 -5 -54 -14 -135
-20 -175 -2 -14 -6 -59 -10 -100 -3 -41 -8 -86 -10 -100 -2 -14 -7 -54 -10
-90 -4 -36 -8 -76 -10 -90 -2 -14 -6 -54 -10 -90 -4 -36 -8 -76 -10 -90 -2
-14 -6 -54 -10 -90 -3 -36 -8 -81 -10 -100 -2 -19 -7 -60 -10 -90 -3 -30 -8
-71 -10 -90 -2 -19 -7 -64 -11 -100 -3 -36 -7 -72 -9 -80 -1 -8 -6 -51 -10
-94 -4 -43 -8 -86 -10 -95 -1 -9 -6 -47 -9 -86 -4 -38 -9 -86 -11 -105 -4 -36
-12 -104 -20 -195 -3 -27 -7 -66 -10 -85 -3 -19 -7 -62 -10 -95 -3 -33 -7 -76
-10 -95 -8 -66 -19 -158 -30 -270 -3 -30 -7 -68 -10 -85 -2 -16 -7 -59 -10
-95 -4 -36 -8 -78 -10 -95 -2 -16 -9 -77 -15 -135 -12 -117 -16 -150 -26 -230
-5 -30 -8 -98 -7 -150 0 -79 4 -106 26 -159 79 -192 259 -311 468 -311 213 0
384 130 427 325 7 28 14 102 17 165 11 248 15 349 20 455 13 247 15 295 20
400 3 61 8 162 10 225 3 63 8 160 10 215 3 55 7 154 10 220 2 66 7 158 10 205
3 47 7 141 10 210 3 69 8 170 11 225 2 55 7 147 10 205 8 179 13 300 19 420
14 284 25 539 30 645 2 50 6 137 9 195 3 58 8 157 11 220 3 63 7 156 9 205 3
50 7 151 11 225 3 74 8 169 10 210 9 178 18 379 18 430 1 98 -48 160 -166 208
-83 35 -246 41 -320 12z"/>
<path d="M3269 8030 c-136 -42 -182 -86 -239 -225 -22 -55 -45 -109 -50 -120
-5 -11 -37 -87 -70 -170 -34 -82 -68 -163 -75 -180 -7 -16 -56 -133 -108 -260
-209 -507 -580 -1402 -593 -1430 -7 -16 -56 -136 -109 -265 -53 -129 -102
-248 -110 -265 -7 -16 -27 -66 -45 -110 -18 -44 -46 -111 -62 -150 -16 -38
-33 -79 -37 -90 -5 -11 -13 -31 -19 -45 -85 -191 -153 -377 -157 -427 -22
-255 255 -398 553 -285 60 23 157 89 196 132 73 83 79 98 276 660 32 91 85
242 118 335 33 94 86 242 117 330 31 88 63 178 71 200 8 22 36 103 63 180 27
77 100 282 161 455 61 173 141 398 177 500 35 102 91 259 123 350 32 91 99
281 149 423 53 151 91 274 91 296 0 71 -65 137 -164 166 -65 20 -186 17 -257
-5z"/>
<path d="M7527 7659 c-76 -18 -136 -59 -165 -114 -13 -26 -16 -87 -18 -425 -2
-217 -6 -858 -9 -1425 -4 -566 -7 -1268 -8 -1560 l-2 -530 36 -75 c63 -131
176 -231 321 -281 77 -28 228 -32 298 -10 64 21 141 72 176 117 57 73 69 117
69 239 -1 102 -11 340 -20 445 -2 25 -6 101 -10 170 -3 69 -8 154 -10 190 -3
36 -7 115 -10 175 -3 61 -7 148 -10 195 -8 139 -14 238 -20 360 -3 63 -7 147
-10 185 -3 39 -7 120 -10 180 -4 61 -8 137 -10 170 -2 33 -7 119 -10 190 -3
72 -8 153 -10 180 -2 28 -7 106 -10 175 -3 69 -8 152 -10 185 -2 33 -6 116
-10 185 -3 69 -7 154 -10 190 -3 36 -7 110 -10 165 -27 559 -25 543 -89 609
-97 100 -283 150 -429 115z"/>
</g>
</svg>
