<svg width="35" height="73" viewBox="0 0 35 73" fill="none" xmlns="http://www.w3.org/2000/svg">
<path d="M17.5 2.49854C8.66344 2.49854 1.5 9.66198 1.5 18.4985L1.5 55.4985C1.5 64.3351 8.66344 71.4985 17.5 71.4985C26.3366 71.4985 33.5 64.3351 33.5 55.4985L33.5 18.4985C33.5 9.66198 26.3366 2.49854 17.5 2.49854Z" fill="#F6F6F6" stroke="#EF9F00" stroke-width="3"/>
<path d="M13.9042 29.6304C13.904 29.8314 13.9528 30.0298 14.0468 30.2094C14.1408 30.3891 14.2772 30.5451 14.4452 30.665C14.6132 30.7848 14.8081 30.8651 15.0143 30.8995C15.2204 30.9339 15.4321 30.9214 15.6323 30.863C16.0341 31.5605 16.4371 32.2576 16.8414 32.9541L13.6404 34.3721L10.1872 35.9143C10.1285 35.9406 10.0794 35.9832 10.0461 36.0366C10.0129 36.0899 9.99697 36.1516 10.0005 36.2137C10.004 36.2759 10.0267 36.3355 10.0658 36.3851C10.1049 36.4347 10.1585 36.4719 10.2198 36.492L10.2251 36.492C11.123 36.7837 12.0223 37.0715 12.9232 37.3552L15.6236 38.213C16.5218 38.5007 17.4258 38.7768 18.3289 39.0572L20.2138 39.6407L14.8442 41.8832C14.7035 41.7123 14.51 41.5886 14.2916 41.5301C14.0732 41.4716 13.8411 41.4811 13.6287 41.5575C13.4163 41.6338 13.2346 41.7729 13.1097 41.9548C12.9848 42.1367 12.9232 42.3519 12.9338 42.5696C12.9443 42.7873 13.0264 42.9961 13.1683 43.1661C13.3103 43.3361 13.5046 43.4584 13.7235 43.5154C13.9423 43.5724 14.1744 43.5613 14.3862 43.4835C14.598 43.4057 14.7787 43.2654 14.9022 43.0826L24.1236 45.7084L17.3263 48.7185L17.3244 48.7185C17.318 48.7213 17.3118 48.7245 17.3058 48.728C17.2635 48.7532 17.2331 48.7933 17.2213 48.8397C17.2094 48.8862 17.217 48.9353 17.2425 48.9764L18.9122 51.6226C18.7593 51.747 18.6597 51.9212 18.6325 52.1119C18.6052 52.3026 18.6523 52.4963 18.7646 52.6557C18.8769 52.815 19.0465 52.9289 19.2409 52.9754C19.4352 53.0219 19.6406 52.9978 19.8175 52.9076C19.9945 52.8174 20.1305 52.6675 20.1995 52.4868C20.2684 52.3061 20.2655 52.1073 20.1912 51.9285C20.1169 51.7498 19.9764 51.6038 19.7969 51.5185C19.6173 51.4332 19.4113 51.4147 19.2184 51.4665L17.6743 48.9654L24.8651 45.8656C24.9075 45.8474 24.9431 45.8172 24.9671 45.7791C24.9911 45.7409 25.0024 45.6966 24.9996 45.6521C24.9967 45.6076 24.9797 45.565 24.9509 45.53C24.9221 45.4951 24.8829 45.4694 24.8385 45.4564L24.8362 45.4564L15.0715 42.591C15.0715 42.5684 15.0749 42.5455 15.0749 42.5225C15.0745 42.4753 15.0708 42.4281 15.0639 42.3813L21.2631 39.8865C21.3243 39.862 21.3762 39.82 21.4119 39.7663C21.4477 39.7127 21.4655 39.6498 21.463 39.5861C21.4605 39.5224 21.4379 39.461 21.3981 39.41C21.3583 39.359 21.3032 39.3209 21.2403 39.3008L21.2365 39.3008L18.538 38.438C17.6375 38.1528 16.7397 37.8607 15.8376 37.581L13.1331 36.7345C12.4897 36.5337 11.8461 36.334 11.2023 36.1353L13.8966 34.8921L17.326 33.2988L17.3305 33.2966C17.3364 33.294 17.3421 33.291 17.3476 33.2878C17.4078 33.2537 17.4516 33.1982 17.4695 33.1333C17.4874 33.0684 17.4779 32.9993 17.4432 32.941C16.9815 32.1774 16.5161 31.4156 16.0471 30.6559C16.2293 30.524 16.3733 30.3496 16.4657 30.1492C16.558 29.9488 16.5955 29.7291 16.5747 29.5109C16.5538 29.2926 16.4753 29.0831 16.3465 28.9022C16.2178 28.7213 16.0431 28.5751 15.839 28.4773C15.6349 28.3795 15.4082 28.3335 15.1804 28.3436C14.9526 28.3536 14.7312 28.4195 14.5373 28.5348C14.3434 28.6502 14.1834 28.8113 14.0725 29.0027C13.9615 29.1942 13.9033 29.4098 13.9034 29.6289L13.9042 29.6304Z" fill="#0F0F3A"/>
<path d="M16.8781 26.8628C16.5912 27.055 16.3043 27.1513 16.0171 27.2231C15.7354 27.29 15.4462 27.3234 15.156 27.3227C14.8659 27.3243 14.5767 27.2913 14.295 27.2246C14.0081 27.1517 13.7208 27.0561 13.434 26.8628C13.7208 26.6699 14.0081 26.5733 14.295 26.5014C14.5767 26.4347 14.8659 26.4017 15.156 26.4033C15.4462 26.4026 15.7354 26.436 16.0171 26.5029C16.3043 26.5747 16.5912 26.6692 16.8781 26.8628Z" fill="#0F0F3A"/>
<path d="M18.5046 24.2885C17.9467 24.4807 17.3885 24.5766 16.8303 24.6488C16.2749 24.7153 15.7157 24.7484 15.156 24.748C14.5963 24.7493 14.0371 24.7165 13.4818 24.6499C12.9235 24.577 12.3657 24.4818 11.8075 24.2885C12.3657 24.0952 12.9235 23.9989 13.4818 23.9271C14.0371 23.8605 14.5963 23.8277 15.156 23.829C15.7157 23.8286 16.2749 23.8617 16.8303 23.9282C17.3885 24.0004 17.9467 24.0963 18.5046 24.2885Z" fill="#0F0F3A"/>
<path d="M20.1311 21.622C19.302 21.8138 18.4728 21.9101 17.6436 21.982C16.8145 22.0538 15.9853 22.0808 15.1561 22.0815C14.327 22.0823 13.4978 22.0505 12.6686 21.9834C11.8395 21.9163 11.0103 21.8149 10.1812 21.622C11.0103 21.4287 11.8395 21.3321 12.6686 21.2603C13.4978 21.1884 14.327 21.1614 15.1561 21.1622C15.9853 21.1629 16.8145 21.1942 17.6436 21.2617C18.4728 21.3292 19.302 21.4298 20.1311 21.622Z" fill="#0F0F3A"/>
</svg>
